<?xml version="1.0" encoding="UTF-8" standalone="no"?>
<!DOCTYPE svg PUBLIC "-//W3C//DTD SVG 1.1//EN" "http://www.w3.org/Graphics/SVG/1.1/DTD/svg11.dtd">
<svg width="100%" height="100%" viewBox="0 0 100 100" version="1.1" xmlns="http://www.w3.org/2000/svg" xmlns:xlink="http://www.w3.org/1999/xlink" xml:space="preserve" xmlns:serif="http://www.serif.com/" style="fill-rule:evenodd;clip-rule:evenodd;stroke-linejoin:round;stroke-miterlimit:2;">
    <g id="envelope_recipient" transform="matrix(0.284492,0,0,0.284492,49.819937,50.221554)">
        <g id="esign">
            <g id="envelope_recipient1" serif:id="envelope_recipient" transform="matrix(1,0,0,1,-108.333333,-108.333333)">
                <g transform="matrix(0.416667,0,0,0.416667,0,0)">
                    <path d="M275,165C275,111 243,64 187,64C131,64 99,111 99,165C98.312,191.771 108.406,217.727 127,237C138.279,246.638 145.441,260.246 147,275C147,289 143,301 111,315C65,335 21,359 21,402C20.114,415.106 24.428,428.047 33,438C41.65,447.918 53.875,454.031 67,455L273,455C267.657,445.914 264.891,435.54 265,425L265,318L262,317C232,302 226,289 226,276C227.006,261.086 234.276,247.273 246,238C264.959,218.891 275.422,192.915 275,166L275,165ZM395,399C396.111,400.674 397.991,401.683 400,401.683C402.009,401.683 403.889,400.674 405,399L498,311C500,308 499,303 493,303L308,303C303,303 298,308 302,312L396,398L395,399ZM500,345C499.554,342.65 497.48,340.933 495.088,340.933C493.968,340.933 492.881,341.309 492,342L418,409C413,414 408,416 401,416C394,416 388,414 383,410L310,342C309.072,340.621 307.514,339.791 305.852,339.791C303.109,339.791 300.852,342.048 300.852,344.791C300.852,345.199 300.902,345.605 301,346L301,440C301,449 308,456 318,456L483,456C493,456 500,449 500,440L500,345Z" style="fill:white;fill-rule:nonzero;"/>
                </g>
            </g>
            <g id="envelope_recipient2" serif:id="envelope_recipient">
            </g>
        </g>
    </g>
</svg>
