<?xml version="1.0" encoding="UTF-8" standalone="no"?>
<!DOCTYPE svg PUBLIC "-//W3C//DTD SVG 1.1//EN" "http://www.w3.org/Graphics/SVG/1.1/DTD/svg11.dtd">
<svg width="100%" height="100%" viewBox="0 0 100 100" version="1.1" xmlns="http://www.w3.org/2000/svg" xmlns:xlink="http://www.w3.org/1999/xlink" xml:space="preserve" xmlns:serif="http://www.serif.com/" style="fill-rule:evenodd;clip-rule:evenodd;stroke-linejoin:round;stroke-miterlimit:2;">
    <g id="envelope_template" transform="matrix(0.232256,0,0,0.232256,50.387064,50.221554)">
        <g id="esign">
            <g id="envelope_template1" serif:id="envelope_template" transform="matrix(1,0,0,1,-208.333333,-208.333333)">
                <g transform="matrix(0.416667,0,0,0.416667,0,0)">
                    <path d="M730,200L410,200C377,200 350,227 350,260L350,270C350,276 354,280 360,280L650,280C683,280 710,307 710,340L710,650C710,656 714,660 720,660L730,660C763,660 790,633 790,600L790,260C790,227 763,200 730,200ZM590,340L270,340C237,340 210,367 210,400L210,740C210,773 237,800 270,800L590,800C623,800 650,773 650,740L650,400C650,367 623,340 590,340ZM290,440C290,429 299,420 310,420L510,420C521,420 530,429 530,440L530,460C530,471 521,480 510,480L310,480C299,480 290,471 290,460L290,440ZM530,700C530,711 521,720 510,720L310,720C299,720 290,711 290,700L290,680C290,669 299,660 310,660L510,660C521,660 530,669 530,680L530,700ZM570,580C570,591 561,600 550,600L310,600C299,600 290,591 290,580L290,560C290,549 299,540 310,540L550,540C561,540 570,549 570,560L570,580Z" style="fill:white;fill-rule:nonzero;"/>
                </g>
            </g>
            <g id="envelope_template2" serif:id="envelope_template">
            </g>
        </g>
    </g>
</svg>
