<?xml version="1.0" encoding="UTF-8" standalone="no"?>
<!DOCTYPE svg PUBLIC "-//W3C//DTD SVG 1.1//EN" "http://www.w3.org/Graphics/SVG/1.1/DTD/svg11.dtd">
<svg width="100%" height="100%" viewBox="0 0 100 100" version="1.1" xmlns="http://www.w3.org/2000/svg" xmlns:xlink="http://www.w3.org/1999/xlink" xml:space="preserve" xmlns:serif="http://www.serif.com/" style="fill-rule:evenodd;clip-rule:evenodd;stroke-linejoin:round;stroke-miterlimit:2;">
    <g id="envelope_event" transform="matrix(0.241014,0,0,0.241014,49.304882,49.788681)">
        <g id="esign">
            <g id="envelope_event1" serif:id="envelope_event" transform="matrix(1,0,0,1,-208.333333,-208.333333)">
                <g transform="matrix(0.416667,0,0,0.416667,0,0)">
                    <path d="M515.7,377L547.1,377C556.1,377 562.8,383 562.8,390.7L562.8,510.7C562.8,514.1 560.8,517.7 558.8,520.7L470.5,598C464.249,603.142 455.151,603.142 448.9,598L427.3,579C424.358,576.729 422.631,573.216 422.631,569.5C422.631,565.784 424.358,562.271 427.3,560L501,495L501,391.4C500,384.4 506,377.7 515,376.8L516,376.8L515.7,377ZM699,491.6L652.6,490.6C652.476,490.588 652.351,490.582 652.226,490.582C650.031,490.582 648.226,492.388 648.226,494.582C648.226,495.739 648.727,496.841 649.6,497.6L719.6,581.6C721.2,583.6 724.2,583.6 726,581.6L799,500.1C801.4,497.4 799.5,493.1 796,493.1L755,492.4L755,490.4C746.416,350.579 624.882,242.279 485,249.8C417.367,253.843 354.031,284.576 309,335.2C302,343.2 303,346.2 318,362.2L321.6,366.2C333.6,379.2 338.6,384.2 347.6,373.6C381.79,334.854 429.7,310.828 481.2,306.6C591.42,297.433 689.725,380.406 699.2,490.6L699.2,492L699,491.6ZM301,509L347.4,509.7C351,509.7 353,505.7 350.4,502.7L280,418.7C278.4,416.7 275.4,416.7 273.6,418.7L200.6,500.4C199.727,501.159 199.226,502.261 199.226,503.418C199.226,505.612 201.031,507.418 203.226,507.418C203.351,507.418 203.476,507.412 203.6,507.4L244.6,508L244.6,510C253.6,650.7 374.6,758 515.2,750C582.816,745.724 646.044,714.776 690.9,664C697.9,656 696.9,653 681.9,637L678.3,633C666.3,620 661.3,615.3 652.3,626C618.202,664.871 570.324,689.043 518.8,693.4C409.067,702.476 311.091,620.244 301,510.6L301,509Z" style="fill:white;fill-rule:nonzero;"/>
                </g>
            </g>
            <g id="envelope_event2" serif:id="envelope_event">
            </g>
        </g>
    </g>
</svg>
